<?xml version="1.0" standalone="no"?>
<!DOCTYPE svg PUBLIC "-//W3C//DTD SVG 20010904//EN" "http://www.w3.org/TR/2001/REC-SVG-20010904/DTD/svg10.dtd">
<svg version="1.0" xmlns="http://www.w3.org/2000/svg" width="512.000000pt" height="512.000000pt" viewBox="0 0 512.000000 512.000000" preserveAspectRatio="xMidYMid meet">
	<g transform="translate(0.000000,512.000000) scale(0.100000,-0.100000)" fill="#ffffff" stroke="none">
		<path d="M2339 4466 c-56 -20 -103 -61 -134 -118 -27 -49 -29 -63 -34 -198 -5
-126 -9 -150 -28 -180 -30 -49 -60 -75 -113 -99 -101 -46 -193 -16 -305 99
-94 96 -130 114 -225 115 -101 0 -131 -19 -306 -197 -150 -151 -164 -174 -164
-262 0 -78 20 -116 113 -213 98 -104 127 -154 127 -228 0 -87 -49 -163 -130
-205 -36 -18 -68 -23 -189 -29 -162 -8 -182 -14 -243 -78 -60 -61 -68 -99 -68
-311 0 -114 5 -200 12 -224 16 -54 88 -132 140 -153 30 -12 83 -19 178 -22
149 -6 181 -16 237 -75 64 -66 81 -163 43 -246 -10 -23 -59 -84 -108 -135 -69
-73 -91 -103 -102 -140 -16 -60 -8 -147 19 -190 11 -17 86 -98 168 -178 165
-162 192 -177 297 -166 74 7 107 27 206 122 100 96 152 121 232 112 70 -9 135
-50 173 -111 29 -47 30 -55 35 -190 6 -158 23 -212 83 -262 69 -58 95 -64 308
-64 220 0 260 8 317 63 69 67 76 88 83 247 5 120 9 152 26 185 45 85 117 129
213 129 83 0 106 -12 223 -122 100 -94 136 -112 223 -112 86 0 134 32 290 192
126 128 144 150 158 198 20 67 20 83 0 149 -13 44 -31 70 -103 145 -49 50 -95
105 -104 121 -50 100 -14 227 85 292 39 26 50 28 187 34 163 7 205 20 256 81
56 67 60 85 60 313 0 231 -6 262 -58 321 -51 59 -77 67 -232 75 -148 7 -188
17 -241 62 -67 57 -94 179 -59 264 8 19 53 74 99 122 95 96 126 152 126 226 0
86 -32 135 -186 286 -77 75 -155 145 -174 155 -49 26 -172 26 -219 0 -19 -10
-75 -57 -125 -105 -64 -61 -103 -90 -132 -99 -84 -25 -160 -9 -224 46 -65 55
-73 79 -81 237 -4 98 -11 153 -24 183 -21 52 -100 124 -153 140 -55 17 -405
15 -453 -2z m374 -1120 c301 -58 549 -288 629 -583 29 -109 29 -297 0 -406
-67 -245 -258 -456 -492 -543 -111 -42 -218 -58 -329 -51 -116 7 -197 29 -306
82 -163 79 -279 196 -360 360 -66 132 -80 195 -80 355 0 160 14 223 80 355 81
164 197 281 360 360 164 80 328 103 498 71z" />
	</g>
</svg>
